<?xml version="1.0" encoding="utf-8"?>
<!-- Generator: Adobe Illustrator 27.6.1, SVG Export Plug-In . SVG Version: 6.00 Build 0)  -->
<svg version="1.1" id="Layer_1" xmlns="http://www.w3.org/2000/svg" xmlns:xlink="http://www.w3.org/1999/xlink" x="0px" y="0px"
	 viewBox="0 0 1920 1080" style="enable-background:new 0 0 1920 1080;" xml:space="preserve">
<style type="text/css">
	.st0{fill:#FFFFFF;}
	.st1{fill:#F0767D;}
</style>
<g>
	<path class="st0" d="M960,343c26.6,0,52.4,5.2,76.7,15.5c23.5,9.9,44.5,24.1,62.6,42.2c18.1,18.1,32.3,39.2,42.2,62.6
		c10.3,24.3,15.5,50.1,15.5,76.7s-5.2,52.4-15.5,76.7c-9.9,23.5-24.1,44.5-42.2,62.6c-18.1,18.1-39.2,32.3-62.6,42.2
		c-24.3,10.3-50.1,15.5-76.7,15.5s-52.4-5.2-76.7-15.5c-23.5-9.9-44.5-24.1-62.6-42.2c-18.1-18.1-32.3-39.2-42.2-62.6
		C768.2,592.4,763,566.6,763,540s5.2-52.4,15.5-76.7c9.9-23.5,24.1-44.5,42.2-62.6c18.1-18.1,39.2-32.3,62.6-42.2
		C907.6,348.2,933.4,343,960,343 M960,340c-110.5,0-200,89.5-200,200s89.5,200,200,200s200-89.5,200-200S1070.5,340,960,340L960,340
		z"/>
</g>
<g>
	<circle class="st1" cx="959.5" cy="739.5" r="26"/>
	<path class="st1" d="M959.5,714c14.1,0,25.5,11.4,25.5,25.5S973.6,765,959.5,765S934,753.6,934,739.5S945.4,714,959.5,714
		 M959.5,713c-14.6,0-26.5,11.9-26.5,26.5s11.9,26.5,26.5,26.5s26.5-11.9,26.5-26.5S974.1,713,959.5,713L959.5,713z"/>
</g>
</svg>
