<?xml version="1.0" encoding="utf-8"?>
<!-- Generator: Adobe Illustrator 27.6.1, SVG Export Plug-In . SVG Version: 6.00 Build 0)  -->
<svg version="1.1" id="Layer_1" xmlns="http://www.w3.org/2000/svg" xmlns:xlink="http://www.w3.org/1999/xlink" x="0px" y="0px"
	 viewBox="0 0 1920 1080" style="enable-background:new 0 0 1920 1080;" xml:space="preserve">
<style type="text/css">
	.st0{fill:#FFFFFF;}
	.st1{fill:#F0767D;}
</style>
<g>
	<path class="st0" d="M960,95c60.1,0,118.4,11.8,173.2,35c53,22.4,100.6,54.5,141.4,95.4c40.9,40.9,73,88.5,95.4,141.4
		c23.2,54.9,35,113.1,35,173.2s-11.8,118.4-35,173.2c-22.4,53-54.5,100.6-95.4,141.4c-40.9,40.9-88.5,73-141.4,95.4
		c-54.9,23.2-113.1,35-173.2,35s-118.4-11.8-173.2-35c-53-22.4-100.6-54.5-141.4-95.4c-40.9-40.9-73-88.5-95.4-141.4
		c-23.2-54.9-35-113.1-35-173.2s11.8-118.4,35-173.2c22.4-53,54.5-100.6,95.4-141.4c40.9-40.9,88.5-73,141.4-95.4
		C841.6,106.8,899.9,95,960,95 M960,92c-247.4,0-448,200.6-448,448s200.6,448,448,448s448-200.6,448-448S1207.4,92,960,92L960,92z"
		/>
</g>
<g>
	<circle class="st1" cx="959.5" cy="987.5" r="26"/>
	<path class="st1" d="M959.5,962c14.1,0,25.5,11.4,25.5,25.5s-11.4,25.5-25.5,25.5s-25.5-11.4-25.5-25.5S945.4,962,959.5,962
		 M959.5,961c-14.6,0-26.5,11.9-26.5,26.5s11.9,26.5,26.5,26.5s26.5-11.9,26.5-26.5S974.1,961,959.5,961L959.5,961z"/>
</g>
</svg>
