<?xml version="1.0" encoding="utf-8"?>
<!-- Generator: Adobe Illustrator 27.6.1, SVG Export Plug-In . SVG Version: 6.00 Build 0)  -->
<svg version="1.1" id="Layer_1" xmlns="http://www.w3.org/2000/svg" xmlns:xlink="http://www.w3.org/1999/xlink" x="0px" y="0px"
	 viewBox="0 0 1920 1080" style="enable-background:new 0 0 1920 1080;" xml:space="preserve">
<style type="text/css">
	.st0{fill:#FFFFFF;}
	.st1{fill:#F0767D;}
</style>
<g>
	<path class="st0" d="M960,186.5c47.7,0,94,9.3,137.6,27.8c42.1,17.8,79.9,43.3,112.4,75.8c32.5,32.5,58,70.3,75.8,112.4
		c18.4,43.6,27.8,89.9,27.8,137.6s-9.3,94-27.8,137.6c-17.8,42.1-43.3,79.9-75.8,112.4c-32.5,32.5-70.3,58-112.4,75.8
		c-43.6,18.4-89.9,27.8-137.6,27.8s-94-9.3-137.6-27.8c-42.1-17.8-79.9-43.3-112.4-75.8c-32.5-32.5-58-70.3-75.8-112.4
		c-18.4-43.6-27.8-89.9-27.8-137.6s9.3-94,27.8-137.6c17.8-42.1,43.3-79.9,75.8-112.4c32.5-32.5,70.3-58,112.4-75.8
		C866,195.8,912.3,186.5,960,186.5 M960,183.5c-196.9,0-356.5,159.6-356.5,356.5S763.1,896.5,960,896.5s356.5-159.6,356.5-356.5
		S1156.9,183.5,960,183.5L960,183.5z"/>
</g>
<g>
	<circle class="st1" cx="960.5" cy="896.5" r="26"/>
	<path class="st1" d="M960.5,871c14.1,0,25.5,11.4,25.5,25.5S974.6,922,960.5,922S935,910.6,935,896.5S946.4,871,960.5,871
		 M960.5,870c-14.6,0-26.5,11.9-26.5,26.5s11.9,26.5,26.5,26.5s26.5-11.9,26.5-26.5S975.1,870,960.5,870L960.5,870z"/>
</g>
</svg>
