<?xml version="1.0" encoding="utf-8"?>
<!-- Generator: Adobe Illustrator 27.6.1, SVG Export Plug-In . SVG Version: 6.00 Build 0)  -->
<svg version="1.1" id="Layer_1" xmlns="http://www.w3.org/2000/svg" xmlns:xlink="http://www.w3.org/1999/xlink" x="0px" y="0px"
	 viewBox="0 0 1920 1080" style="enable-background:new 0 0 1920 1080;" xml:space="preserve">
<style type="text/css">
	.st0{fill:#FFFFFF;}
	.st1{fill:#F0767D;}
</style>
<g>
	<path class="st0" d="M960,241.2c40.3,0,79.5,7.9,116.3,23.5c35.6,15,67.5,36.6,95,64c27.4,27.4,49,59.4,64,95
		c15.6,36.8,23.5,76,23.5,116.3s-7.9,79.5-23.5,116.3c-15,35.6-36.6,67.5-64,95s-59.4,49-95,64c-36.8,15.6-76,23.5-116.3,23.5
		s-79.5-7.9-116.3-23.5c-35.6-15-67.5-36.6-95-64s-49-59.4-64-95c-15.6-36.8-23.5-76-23.5-116.3s7.9-79.5,23.5-116.3
		c15-35.6,36.6-67.5,64-95c27.4-27.4,59.4-49,95-64C880.5,249.1,919.7,241.2,960,241.2 M960,238.2c-166.7,0-301.8,135.1-301.8,301.8
		S793.3,841.8,960,841.8s301.8-135.1,301.8-301.8S1126.7,238.2,960,238.2L960,238.2z"/>
</g>
<g>
	<circle class="st1" cx="960.5" cy="841.5" r="26"/>
	<path class="st1" d="M960.5,816c14.1,0,25.5,11.4,25.5,25.5S974.6,867,960.5,867S935,855.6,935,841.5S946.4,816,960.5,816
		 M960.5,815c-14.6,0-26.5,11.9-26.5,26.5s11.9,26.5,26.5,26.5s26.5-11.9,26.5-26.5S975.1,815,960.5,815L960.5,815z"/>
</g>
</svg>
