<?xml version="1.0" encoding="utf-8"?>
<!-- Generator: Adobe Illustrator 27.6.1, SVG Export Plug-In . SVG Version: 6.00 Build 0)  -->
<svg version="1.1" id="Layer_1" xmlns="http://www.w3.org/2000/svg" xmlns:xlink="http://www.w3.org/1999/xlink" x="0px" y="0px"
	 viewBox="0 0 1920 1080" style="enable-background:new 0 0 1920 1080;" xml:space="preserve">
<style type="text/css">
	.st0{fill:#FFFFFF;}
	.st1{fill:#F0767D;}
</style>
<g>
	<path class="st0" d="M1009,20c69.1,0,136.2,13.5,199.3,40.2C1269.3,86,1324,122.9,1371,170c47,47,83.9,101.8,109.7,162.7
		c26.7,63.1,40.2,130.2,40.2,199.3s-13.5,136.2-40.2,199.3C1455,792.3,1418.1,847,1371,894c-47,47-101.8,83.9-162.7,109.7
		c-63.1,26.7-130.2,40.2-199.3,40.2s-136.2-13.5-199.3-40.2C748.7,978,694,941.1,647,894c-47-47-83.9-101.8-109.7-162.7
		C510.5,668.2,497,601.1,497,532s13.5-136.2,40.2-199.3C563,271.7,599.9,217,647,170c47-47,101.8-83.9,162.7-109.7
		C872.8,33.5,939.9,20,1009,20 M1009,17c-284.4,0-515,230.6-515,515s230.6,515,515,515s515-230.6,515-515S1293.4,17,1009,17L1009,17
		z"/>
</g>
<g>
	<circle class="st1" cx="1008.5" cy="1046.5" r="26"/>
	<path class="st1" d="M1008.5,1021c14.1,0,25.5,11.4,25.5,25.5s-11.4,25.5-25.5,25.5s-25.5-11.4-25.5-25.5S994.4,1021,1008.5,1021
		 M1008.5,1020c-14.6,0-26.5,11.9-26.5,26.5s11.9,26.5,26.5,26.5s26.5-11.9,26.5-26.5S1023.1,1020,1008.5,1020L1008.5,1020z"/>
</g>
</svg>
