<svg id="visual" viewBox="0 0 900 600" width="" height="600" xmlns="http://www.w3.org/2000/svg" xmlns:xlink="http://www.w3.org/1999/xlink" version="1.1"><rect x="0" y="0" width="900" height="600" fill="#071c3d"></rect><path d="M0 294L12.5 293.2C25 292.3 50 290.7 75 286.7C100 282.7 125 276.3 150 279.2C175 282 200 294 225 300C250 306 275 306 300 301.8C325 297.7 350 289.3 375 286.8C400 284.3 425 287.7 450 290C475 292.3 500 293.7 525 295.8C550 298 575 301 600 301.3C625 301.7 650 299.3 675 302C700 304.7 725 312.3 750 308.2C775 304 800 288 825 289.2C850 290.3 875 308.7 887.5 317.8L900 327L900 0L887.5 0C875 0 850 0 825 0C800 0 775 0 750 0C725 0 700 0 675 0C650 0 625 0 600 0C575 0 550 0 525 0C500 0 475 0 450 0C425 0 400 0 375 0C350 0 325 0 300 0C275 0 250 0 225 0C200 0 175 0 150 0C125 0 100 0 75 0C50 0 25 0 12.5 0L0 0Z" fill="#d3e6e8"></path><path d="M0 265L12.5 262.8C25 260.7 50 256.3 75 256.5C100 256.7 125 261.3 150 262.3C175 263.3 200 260.7 225 257.7C250 254.7 275 251.3 300 247.2C325 243 350 238 375 231.8C400 225.7 425 218.3 450 219.5C475 220.7 500 230.3 525 239.7C550 249 575 258 600 257.8C625 257.7 650 248.3 675 246.2C700 244 725 249 750 249.8C775 250.7 800 247.3 825 243.3C850 239.3 875 234.7 887.5 232.3L900 230L900 0L887.5 0C875 0 850 0 825 0C800 0 775 0 750 0C725 0 700 0 675 0C650 0 625 0 600 0C575 0 550 0 525 0C500 0 475 0 450 0C425 0 400 0 375 0C350 0 325 0 300 0C275 0 250 0 225 0C200 0 175 0 150 0C125 0 100 0 75 0C50 0 25 0 12.5 0L0 0Z" fill="#b2d5ef"></path><path d="M0 206L12.5 205.7C25 205.3 50 204.7 75 202.2C100 199.7 125 195.3 150 194C175 192.7 200 194.3 225 193.7C250 193 275 190 300 182.2C325 174.3 350 161.7 375 163.3C400 165 425 181 450 187.2C475 193.3 500 189.7 525 189.5C550 189.3 575 192.7 600 190.7C625 188.7 650 181.3 675 175.3C700 169.3 725 164.7 750 162.8C775 161 800 162 825 169C850 176 875 189 887.5 195.5L900 202L900 0L887.5 0C875 0 850 0 825 0C800 0 775 0 750 0C725 0 700 0 675 0C650 0 625 0 600 0C575 0 550 0 525 0C500 0 475 0 450 0C425 0 400 0 375 0C350 0 325 0 300 0C275 0 250 0 225 0C200 0 175 0 150 0C125 0 100 0 75 0C50 0 25 0 12.5 0L0 0Z" fill="#bcb9ef"></path><path d="M0 137L12.5 138.2C25 139.3 50 141.7 75 134.3C100 127 125 110 150 104.2C175 98.3 200 103.7 225 106.5C250 109.3 275 109.7 300 109.3C325 109 350 108 375 107.7C400 107.3 425 107.7 450 104.8C475 102 500 96 525 100.3C550 104.7 575 119.3 600 125.5C625 131.7 650 129.3 675 127.3C700 125.3 725 123.7 750 126.3C775 129 800 136 825 133C850 130 875 117 887.5 110.5L900 104L900 0L887.5 0C875 0 850 0 825 0C800 0 775 0 750 0C725 0 700 0 675 0C650 0 625 0 600 0C575 0 550 0 525 0C500 0 475 0 450 0C425 0 400 0 375 0C350 0 325 0 300 0C275 0 250 0 225 0C200 0 175 0 150 0C125 0 100 0 75 0C50 0 25 0 12.5 0L0 0Z" fill="#e294c9"></path><path d="M0 42L12.5 48.7C25 55.3 50 68.7 75 70C100 71.3 125 60.7 150 55.3C175 50 200 50 225 50.7C250 51.3 275 52.7 300 52.7C325 52.7 350 51.3 375 52.3C400 53.3 425 56.7 450 62.8C475 69 500 78 525 82.7C550 87.3 575 87.7 600 79.8C625 72 650 56 675 49.5C700 43 725 46 750 53.2C775 60.3 800 71.7 825 73C850 74.3 875 65.7 887.5 61.3L900 57L900 0L887.5 0C875 0 850 0 825 0C800 0 775 0 750 0C725 0 700 0 675 0C650 0 625 0 600 0C575 0 550 0 525 0C500 0 475 0 450 0C425 0 400 0 375 0C350 0 325 0 300 0C275 0 250 0 225 0C200 0 175 0 150 0C125 0 100 0 75 0C50 0 25 0 12.5 0L0 0Z" fill="#f0767d"></path></svg>